<?xml version="1.0" standalone="no"?>
<!DOCTYPE svg PUBLIC "-//W3C//DTD SVG 20010904//EN"
 "http://www.w3.org/TR/2001/REC-SVG-20010904/DTD/svg10.dtd">
<svg version="1.0" xmlns="http://www.w3.org/2000/svg"
 width="500.000000pt" height="500.000000pt" viewBox="0 0 500.000000 500.000000"
 preserveAspectRatio="xMidYMid meet">

<g transform="translate(0.000000,500.000000) scale(0.100000,-0.100000)"
fill="#000000" stroke="none">
<path d="M2788 4239 c-12 -6 -18 -22 -18 -44 0 -59 62 -72 96 -19 15 22 15 26
0 49 -17 26 -48 32 -78 14z"/>
<path d="M2072 4188 c-29 -29 3 -82 36 -61 25 15 22 67 -3 71 -11 1 -26 -3
-33 -10z"/>
<path d="M2991 4114 c0 -11 3 -14 6 -6 3 7 2 16 -1 19 -3 4 -6 -2 -5 -13z"/>
<path d="M3005 4039 c-10 -15 3 -25 16 -12 7 7 7 13 1 17 -6 3 -14 1 -17 -5z"/>
<path d="M2940 3970 c0 -5 5 -10 10 -10 6 0 10 5 10 10 0 6 -4 10 -10 10 -5 0
-10 -4 -10 -10z"/>
<path d="M1570 3818 c-308 -245 -506 -575 -592 -984 -19 -90 -22 -138 -22
-279 1 -93 6 -189 11 -211 14 -56 3 -71 -27 -39 -33 35 -101 59 -151 52 -22
-3 -43 -8 -47 -12 -10 -9 28 -73 54 -90 37 -24 109 -36 155 -26 29 7 41 6 43
-2 2 -7 12 -45 23 -84 11 -40 18 -73 16 -73 -2 0 -22 12 -45 28 -55 36 -119
37 -167 3 l-34 -24 31 -28 c38 -34 105 -46 165 -30 71 20 69 21 115 -69 49
-96 63 -115 157 -219 l67 -74 -28 -15 c-16 -8 -62 -34 -101 -59 -88 -53 -89
-62 -39 -183 24 -55 31 -83 23 -85 -7 -3 -32 -11 -56 -20 -63 -22 -138 -81
-187 -148 -57 -77 -57 -92 -1 -67 51 24 126 25 193 5 78 -24 81 -27 60 -72
-28 -57 -46 -124 -46 -167 l0 -39 39 45 c39 44 129 99 186 113 17 4 68 10 115
14 l84 6 -91 68 c-159 118 -246 229 -303 386 l-29 80 57 35 c105 63 325 166
432 200 471 153 1027 181 1495 75 258 -59 472 -145 656 -264 66 -42 70 -48 64
-73 -11 -43 -80 -186 -116 -239 -49 -71 -145 -169 -219 -222 l-65 -46 90 -7
c138 -12 215 -45 289 -122 l39 -41 -6 60 c-2 33 -16 86 -31 118 l-25 58 47 22
c69 31 167 35 226 9 25 -12 46 -17 46 -13 0 16 -58 88 -109 133 -29 27 -86 64
-125 84 l-73 35 41 101 41 100 -40 34 c-22 18 -66 48 -97 67 l-56 33 49 65
c27 35 61 78 76 94 14 17 48 75 74 129 27 55 51 101 53 103 1 2 25 -6 51 -18
60 -26 128 -22 174 10 38 27 36 38 -9 69 -43 29 -94 28 -153 -3 -26 -14 -47
-22 -47 -17 0 5 7 31 15 58 53 180 73 377 56 559 -35 366 -189 698 -443 957
-69 70 -208 188 -221 188 -4 0 53 -60 126 -133 294 -295 440 -565 493 -911 24
-160 13 -516 -16 -516 -4 0 -10 20 -12 45 -9 73 -80 155 -136 155 -29 0 -35
-14 -27 -66 8 -56 51 -106 119 -141 28 -14 52 -26 53 -27 4 -3 -34 -141 -49
-176 l-15 -35 -6 72 c-8 83 -20 119 -50 151 -55 59 -87 48 -87 -30 0 -68 19
-106 79 -160 60 -54 60 -53 2 -158 l-36 -65 -3 40 c-4 64 -11 83 -39 114 l-26
28 -58 -76 c-85 -112 -226 -219 -253 -191 -8 9 -8 14 2 17 7 3 49 31 92 64 95
70 229 229 193 229 -5 0 -37 -9 -71 -20 -35 -11 -72 -20 -83 -20 -10 0 -56
-27 -101 -61 -123 -91 -278 -164 -278 -131 0 4 26 20 58 36 72 35 222 128 222
138 0 5 -36 8 -79 8 -59 0 -98 -6 -148 -24 -37 -14 -85 -28 -105 -31 -38 -7
-38 -7 -38 -57 l0 -51 -37 6 c-21 3 -101 16 -178 28 -200 32 -577 32 -739 0
-158 -31 -156 -31 -156 27 0 27 -2 51 -5 54 -3 3 -40 -3 -83 -14 -177 -43
-386 -32 -599 32 -51 15 -95 25 -97 21 -2 -3 -9 -34 -16 -68 -7 -35 -15 -63
-19 -63 -3 0 -22 29 -41 65 l-35 64 42 43 c49 51 73 102 73 158 0 50 -20 61
-58 33 -48 -36 -73 -91 -69 -152 6 -78 -13 -46 -47 77 -56 210 -67 392 -36
600 32 219 97 401 208 586 88 145 160 233 308 373 77 73 137 134 134 136 -3 3
-39 -22 -80 -55z m2214 -1970 c7 -12 1 -29 -29 -72 -49 -71 -56 -77 -102 -83
-26 -3 -44 1 -58 12 -11 9 -15 18 -10 21 56 25 121 72 143 104 28 41 39 44 56
18z m-2521 -29 c50 -26 162 -59 199 -59 67 0 61 -13 -22 -52 l-84 -38 -42 41
c-44 43 -110 129 -99 129 3 0 25 -10 48 -21z"/>
<path d="M2353 3745 c8 -49 33 -85 68 -98 l29 -11 3 -631 2 -630 3 633 2 632
29 0 c42 0 81 37 90 85 l7 40 -80 0 c-45 0 -99 4 -120 9 l-39 9 6 -38z"/>
<path d="M1791 3708 c-108 -19 -170 -103 -179 -245 -2 -46 -2 -83 1 -83 22 0
157 50 222 82 81 40 225 142 225 159 0 13 -85 66 -124 78 -48 15 -97 18 -145
9z"/>
<path d="M2642 3628 c-23 -23 -7 -68 25 -68 7 0 18 11 25 25 18 40 -20 73 -50
43z"/>
<path d="M3335 3449 c-80 -42 -142 -85 -160 -112 -7 -12 -19 -62 -26 -112 -12
-89 -13 -90 -65 -143 -29 -29 -51 -59 -48 -65 2 -7 -9 -26 -26 -42 -16 -16
-30 -32 -30 -36 0 -4 16 -17 36 -30 l37 -22 26 31 c14 18 33 32 41 32 8 1 33
31 55 68 40 66 57 81 173 151 22 13 45 36 52 50 7 14 14 79 17 144 7 135 9
133 -82 86z m15 -136 c-1 -64 -9 -81 -60 -112 -64 -39 -75 -30 -71 53 3 53 15
72 59 95 63 34 72 29 72 -36z"/>
<path d="M2066 3341 c-87 -66 -216 -133 -289 -151 -59 -15 -53 -25 41 -68 69
-32 148 -52 206 -52 30 0 35 -5 66 -70 18 -38 36 -68 38 -65 2 2 -10 34 -27
71 l-31 66 37 75 c32 65 37 86 41 164 3 49 3 89 1 89 -2 0 -39 -27 -83 -59z"/>
<path d="M1505 3241 c-3 -5 -1 -12 5 -16 5 -3 10 1 10 9 0 18 -6 21 -15 7z"/>
<path d="M2686 3186 c-25 -86 -37 -74 155 -154 5 -2 25 22 46 53 44 67 46 64
-72 121 -98 48 -110 46 -129 -20z"/>
<path d="M2564 3215 c-8 -20 4 -35 27 -35 14 0 19 7 19 25 0 18 -5 25 -20 25
-11 0 -23 -7 -26 -15z"/>
<path d="M1450 3170 c0 -5 7 -10 16 -10 8 0 12 5 9 10 -3 6 -10 10 -16 10 -5
0 -9 -4 -9 -10z"/>
<path d="M1517 3149 c4 -15 8 -17 14 -8 8 14 3 29 -11 29 -4 0 -6 -9 -3 -21z"/>
<path d="M1521 3094 c0 -11 3 -14 6 -6 3 7 2 16 -1 19 -3 4 -6 -2 -5 -13z"/>
<path d="M2675 2938 c-47 -56 -91 -132 -115 -204 -26 -74 -46 -226 -33 -249 9
-16 13 -15 37 11 66 72 141 270 161 432 8 64 -1 66 -50 10z"/>
<path d="M1551 2923 c-57 -28 -90 -92 -116 -230 -7 -33 -6 -33 33 -33 l39 0
12 59 c13 65 47 124 75 129 38 8 56 -27 81 -155 6 -29 10 -33 38 -33 56 0 60
8 42 86 -19 86 -50 142 -94 171 -40 27 -64 28 -110 6z"/>
<path d="M1827 2925 c-3 -11 -9 -73 -13 -137 l-7 -118 28 0 28 0 -8 110 c-3
60 -10 122 -14 137 -7 25 -8 26 -14 8z"/>
<path d="M1350 2790 c0 -126 1 -130 21 -130 21 0 21 3 15 103 -8 121 -14 157
-27 157 -5 0 -9 -57 -9 -130z"/>
<path d="M2165 2856 c-18 -13 -19 -19 -8 -70 15 -69 77 -203 131 -282 45 -67
122 -157 129 -151 8 9 -37 168 -77 270 -37 96 -121 236 -145 244 -6 2 -20 -3
-30 -11z"/>
<path d="M1991 2786 c-7 -8 -11 -27 -9 -43 6 -50 78 -40 78 11 0 41 -45 62
-69 32z"/>
<path d="M2041 2544 c-45 -57 -13 -114 63 -114 40 0 48 -4 85 -46 26 -29 46
-44 58 -42 15 3 8 14 -35 60 -30 31 -53 65 -52 75 4 35 0 49 -20 71 -29 31
-73 29 -99 -4z"/>
<path d="M2926 2534 c-9 -8 -16 -32 -16 -51 0 -31 -8 -43 -57 -89 -42 -38 -53
-53 -39 -54 10 0 40 20 67 44 40 36 56 44 85 43 63 -2 92 62 52 110 -15 18
-73 16 -92 -3z"/>
<path d="M1281 2506 c-13 -16 -37 -234 -26 -244 8 -8 109 -20 181 -21 l62 -1
6 54 7 53 46 7 c25 3 67 6 93 6 l47 0 7 -58 7 -58 81 9 c46 4 98 12 118 16
l35 7 -3 85 c-4 113 -29 177 -46 117 l-6 -23 -19 24 -19 24 -6 -21 c-9 -26
-31 -29 -40 -5 -6 14 -8 14 -21 -3 -15 -18 -15 -18 -29 -1 -14 18 -15 18 -27
-4 -11 -22 -12 -22 -26 -3 -13 18 -15 18 -24 2 -13 -24 -26 -23 -35 4 l-6 21
-19 -24 c-19 -25 -20 -25 -37 6 -10 19 -11 18 -22 -10 l-12 -30 -21 28 -21 27
-12 -27 -11 -28 -13 28 c-16 32 -26 34 -33 7 -7 -28 -22 -25 -36 7 l-13 28
-12 -23 -12 -23 -13 28 c-12 25 -14 26 -25 11 -12 -17 -14 -16 -22 3 -9 19
-11 19 -23 5z"/>
<path d="M3624 2444 c7 -66 18 -95 32 -81 12 12 -10 140 -25 145 -12 4 -13 -7
-7 -64z"/>
<path d="M1113 2471 c-52 -37 -83 -101 -83 -169 0 -29 3 -52 6 -52 16 0 98 66
115 93 39 64 47 157 14 157 -6 0 -30 -13 -52 -29z"/>
<path d="M3222 2416 c4 -111 23 -115 23 -4 0 57 -4 83 -13 86 -10 3 -12 -15
-10 -82z"/>
<path d="M3362 2414 c2 -60 7 -89 16 -92 10 -3 12 16 10 84 -2 60 -7 89 -16
92 -10 3 -12 -16 -10 -84z"/>
<path d="M3503 2425 c6 -79 20 -114 33 -81 11 28 -9 149 -25 154 -12 4 -13 -9
-8 -73z"/>
<path d="M2620 2418 c-65 -80 -64 -78 -49 -78 13 0 99 100 99 114 0 16 -19 2
-50 -36z"/>
<path d="M4125 2346 c-38 -18 -71 -49 -90 -86 -14 -28 -14 -31 0 -36 21 -9
121 4 149 17 43 23 97 91 83 106 -13 12 -115 12 -142 -1z"/>
<path d="M1583 2343 l-63 -4 0 -129 c0 -70 3 -135 6 -144 5 -13 23 -16 92 -16
l85 0 -6 98 c-4 53 -7 121 -7 150 0 48 -2 52 -22 50 -13 -1 -51 -3 -85 -5z
m45 -121 c9 -6 10 -16 1 -40 -13 -37 -24 -40 -39 -13 -24 46 -2 78 38 53z"/>
<path d="M3646 2305 c-108 -52 -317 -57 -460 -11 l-75 24 -6 -52 c-4 -28 -5
-69 -3 -91 3 -39 4 -40 71 -67 87 -35 160 -48 270 -48 l90 0 88 89 c86 86 89
90 89 135 0 25 -3 46 -7 45 -5 0 -30 -11 -57 -24z"/>
<path d="M3662 2144 c-60 -63 -61 -66 -33 -61 16 4 46 13 65 21 34 14 36 18
36 60 0 26 -1 46 -3 46 -1 0 -31 -30 -65 -66z"/>
<path d="M3100 2050 c0 -33 4 -50 12 -50 7 0 43 10 81 22 l68 21 -73 28 c-40
16 -76 29 -80 29 -5 0 -8 -22 -8 -50z"/>
<path d="M2290 1669 c0 -46 4 -90 9 -98 7 -10 23 -12 62 -9 41 4 58 11 76 32
30 36 30 86 0 122 -20 23 -34 28 -85 32 l-62 4 0 -83z m114 32 c26 -28 18 -82
-15 -100 -44 -25 -59 -10 -59 59 0 59 0 60 28 60 16 0 37 -9 46 -19z"/>
<path d="M2570 1655 c0 -78 3 -95 15 -95 12 0 15 13 15 60 0 33 4 60 9 60 5 0
19 -16 31 -35 12 -19 27 -35 33 -35 7 0 23 17 37 37 l25 37 5 -64 c3 -38 10
-65 18 -68 9 -3 12 17 14 72 1 42 2 86 2 98 2 43 -30 32 -63 -22 -17 -28 -36
-48 -41 -45 -5 3 -21 26 -36 51 -16 27 -33 44 -45 44 -17 0 -19 -8 -19 -95z"/>
<path d="M2146 1732 c-3 -4 0 -28 5 -51 5 -24 8 -48 7 -53 -2 -5 -29 14 -61
43 -68 60 -93 61 -83 1 18 -100 28 -142 36 -142 17 0 20 19 9 70 -6 28 -9 54
-6 57 3 3 30 -18 60 -46 52 -50 87 -65 87 -38 0 16 -19 125 -26 150 -6 18 -19
23 -28 9z"/>
<path d="M2901 1636 c-28 -46 -51 -87 -51 -90 0 -14 30 -4 43 14 12 17 21 20
56 14 35 -6 41 -10 41 -31 0 -20 24 -43 34 -32 6 6 -29 182 -38 197 -16 26
-37 9 -85 -72z m73 12 c10 -39 7 -48 -19 -48 -28 0 -30 8 -13 45 14 31 24 32
32 3z"/>
<path d="M1816 1664 c-9 -29 -44 -204 -41 -204 19 0 35 17 35 36 0 18 8 25 38
33 49 14 59 14 66 -4 5 -14 46 -22 46 -9 0 4 -92 115 -130 158 -5 4 -11 0 -14
-10z m44 -73 c14 -26 13 -28 -10 -34 -17 -4 -20 0 -20 24 0 33 14 38 30 10z"/>
<path d="M3132 1584 c-22 -98 -22 -99 41 -109 57 -10 93 9 112 59 27 71 -9
122 -93 133 l-39 5 -21 -88z m113 31 c14 -13 25 -33 25 -43 0 -33 -38 -72 -70
-72 -56 0 -59 4 -42 76 14 56 19 64 39 64 13 0 35 -11 48 -25z"/>
<path d="M1614 1603 c20 -70 21 -70 -29 -86 l-46 -16 -10 27 c-5 15 -12 33
-14 40 -5 14 -21 16 -29 3 -10 -15 56 -181 72 -181 14 0 13 20 -4 64 -4 12 4
20 30 31 52 22 63 19 76 -20 6 -19 18 -35 26 -35 19 0 18 3 -14 100 -20 59
-34 86 -46 88 -13 3 -17 -1 -12 -15z"/>
<path d="M3405 1588 c-20 -54 -54 -162 -52 -164 3 -3 107 -44 112 -44 3 0 5 6
5 14 0 8 -19 21 -42 29 -33 11 -42 18 -40 33 6 32 17 35 56 19 35 -15 37 -15
34 1 -2 10 -16 22 -33 27 -39 13 -37 10 -26 40 l10 27 45 -20 c29 -12 48 -15
52 -9 8 14 7 14 -54 38 -62 25 -61 25 -67 9z"/>
<path d="M2260 1429 c-161 -17 -395 -67 -583 -125 -113 -35 -298 -107 -295
-115 2 -4 48 -44 103 -88 254 -207 560 -330 902 -362 173 -17 332 0 538 56
175 47 420 169 568 283 54 42 108 83 118 91 11 7 19 17 19 21 0 20 -295 127
-465 169 -287 71 -635 98 -905 70z m300 -81 c26 -29 25 -70 -4 -143 -21 -52
-29 -60 -53 -63 -27 -3 -31 1 -56 66 -32 83 -34 115 -7 142 28 28 93 27 120
-2z m-483 -75 c60 -40 112 -94 154 -161 28 -44 29 -48 12 -60 -96 -73 -319
-128 -352 -88 -9 11 -5 19 19 40 18 14 35 26 38 27 4 0 39 8 77 19 77 20 77
20 -48 44 -183 35 -294 121 -182 142 50 9 111 -9 227 -67 l101 -50 -71 68
c-73 71 -97 106 -86 124 10 16 54 2 111 -38z m943 5 c0 -30 -29 -66 -88 -109
-68 -48 -62 -49 26 -5 124 63 234 83 267 50 23 -23 15 -45 -23 -67 -38 -22
-152 -53 -232 -63 -30 -3 -59 -9 -64 -12 -5 -3 25 -13 65 -24 75 -18 113 -39
133 -72 18 -28 -19 -49 -74 -42 -51 7 -249 102 -264 128 -8 13 0 32 38 87 26
39 64 85 84 102 64 56 132 71 132 27z m-600 -93 c41 -53 41 -54 25 -79 -19
-28 -35 -30 -119 -17 -57 10 -76 30 -76 81 0 36 25 71 60 82 30 10 70 -15 110
-67z m305 52 c38 -32 39 -91 3 -122 -31 -26 -149 -46 -156 -26 -2 6 -10 18
-18 26 -14 14 0 39 72 128 19 24 68 21 99 -6z m-279 -202 c16 -25 16 -27 -8
-53 -14 -15 -35 -42 -48 -60 -30 -45 -63 -56 -101 -36 -50 25 -65 96 -28 130
17 16 50 25 161 43 4 0 15 -10 24 -24z m224 9 c53 -7 77 -25 85 -64 8 -37 -18
-88 -51 -100 -40 -16 -73 -1 -101 44 -14 22 -34 51 -45 63 -19 20 -19 22 -2
48 13 20 23 25 43 21 14 -3 46 -8 71 -12z m-125 -94 c9 -27 21 -52 26 -55 18
-12 9 -66 -16 -90 -48 -49 -135 -17 -135 49 0 17 4 36 9 42 4 5 16 30 26 57
15 41 21 47 46 47 24 0 29 -6 44 -50z"/>
</g>
</svg>